<?xml version="1.0" encoding="utf-8"?>
<!-- Generator: Adobe Illustrator 22.0.0, SVG Export Plug-In . SVG Version: 6.00 Build 0)  -->
<svg version="1.1" id="图层_1" xmlns="http://www.w3.org/2000/svg" xmlns:xlink="http://www.w3.org/1999/xlink" x="0px" y="0px"
	 viewBox="0 0 1280 1024" style="enable-background:new 0 0 1280 1024;" xml:space="preserve">
<style type="text/css">
	.st0{fill:#261300;}
	.st1{fill:#FF850E;}
</style>
<g>
	<rect x="380.5" y="223.5" class="st0" width="583" height="583"/>
	<path class="st1" d="M955,232v566H389V232H955 M972,215H372v600h600V215L972,215z"/>
</g>
<g>
	<path class="st1" d="M695.9,648l-20.1-58.6H560.6L540.5,648h-47.2l107-291.9H636L743,648H695.9z M619.2,422l-45.5,129.6h89.8
		L619.2,422z"/>
	<path class="st1" d="M800.4,399.5c-14.8,0-27.1-12.3-27.1-27.1s12.3-27.1,27.1-27.1c14.8,0,27.1,12.3,27.1,27.1
		S815.2,399.5,800.4,399.5z M779.5,648V440.1h41.8V648H779.5z"/>
</g>
<g>
</g>
<g>
</g>
<g>
</g>
<g>
</g>
<g>
</g>
<g>
</g>
<g>
</g>
<g>
</g>
<g>
</g>
<g>
</g>
<g>
</g>
<g>
</g>
<g>
</g>
<g>
</g>
<g>
</g>
</svg>
